<mxfile host="app.diagrams.net" modified="2021-01-03T00:56:03.993Z" agent="5.0 (Windows NT 10.0; Win64; x64) AppleWebKit/537.36 (KHTML, like Gecko) Chrome/87.0.4280.88 Safari/537.36" etag="FMUgxXwlkPhGtLtE74Cz" version="14.1.1" type="github" pages="2">
  <diagram id="R2lEEEUBdFMjLlhIrx00" name="分E-R图">
    <mxGraphModel dx="1738" dy="792" grid="1" gridSize="10" guides="1" tooltips="1" connect="1" arrows="1" fold="1" page="1" pageScale="1" pageWidth="850" pageHeight="1100" math="0" shadow="0" extFonts="Permanent Marker^https://fonts.googleapis.com/css?family=Permanent+Marker">
      <root>
        <mxCell id="0" />
        <mxCell id="1" parent="0" />
        <mxCell id="YFebECgkl_Tr_p_fUanE-1" value="&lt;font style=&quot;font-size: 16px&quot;&gt;学生&lt;/font&gt;" style="whiteSpace=wrap;html=1;align=center;fontSize=16;" vertex="1" parent="1">
          <mxGeometry x="200" y="630" width="100" height="40" as="geometry" />
        </mxCell>
        <mxCell id="YFebECgkl_Tr_p_fUanE-2" value="&lt;font style=&quot;font-size: 16px&quot;&gt;老师&lt;/font&gt;" style="whiteSpace=wrap;html=1;align=center;fontSize=16;" vertex="1" parent="1">
          <mxGeometry x="400" y="630" width="100" height="40" as="geometry" />
        </mxCell>
        <mxCell id="YFebECgkl_Tr_p_fUanE-5" value="笔记" style="whiteSpace=wrap;html=1;align=center;fontSize=16;" vertex="1" parent="1">
          <mxGeometry x="290" y="710" width="100" height="40" as="geometry" />
        </mxCell>
        <mxCell id="YFebECgkl_Tr_p_fUanE-7" value="&lt;font style=&quot;font-size: 16px&quot;&gt;选课&lt;/font&gt;" style="shape=rhombus;perimeter=rhombusPerimeter;whiteSpace=wrap;html=1;align=center;fontSize=16;" vertex="1" parent="1">
          <mxGeometry x="190" y="500" width="120" height="60" as="geometry" />
        </mxCell>
        <mxCell id="YFebECgkl_Tr_p_fUanE-8" value="学生" style="whiteSpace=wrap;html=1;align=center;fontSize=16;" vertex="1" parent="1">
          <mxGeometry x="652.5" y="910" width="100" height="40" as="geometry" />
        </mxCell>
        <mxCell id="YFebECgkl_Tr_p_fUanE-9" value="学生" style="whiteSpace=wrap;html=1;align=center;fontSize=16;" vertex="1" parent="1">
          <mxGeometry x="170" y="920" width="100" height="40" as="geometry" />
        </mxCell>
        <mxCell id="YFebECgkl_Tr_p_fUanE-10" value="学生" style="whiteSpace=wrap;html=1;align=center;fontSize=16;" vertex="1" parent="1">
          <mxGeometry x="652.5" y="780" width="100" height="40" as="geometry" />
        </mxCell>
        <mxCell id="YFebECgkl_Tr_p_fUanE-11" value="课程" style="whiteSpace=wrap;html=1;align=center;fontSize=16;" vertex="1" parent="1">
          <mxGeometry x="1047.5" y="780" width="100" height="40" as="geometry" />
        </mxCell>
        <mxCell id="YFebECgkl_Tr_p_fUanE-12" value="评价" style="shape=rhombus;perimeter=rhombusPerimeter;whiteSpace=wrap;html=1;align=center;fontSize=16;" vertex="1" parent="1">
          <mxGeometry x="832.5" y="770" width="120" height="60" as="geometry" />
        </mxCell>
        <mxCell id="YFebECgkl_Tr_p_fUanE-13" value="&lt;font style=&quot;font-size: 16px&quot;&gt;讲授&lt;/font&gt;" style="shape=rhombus;perimeter=rhombusPerimeter;whiteSpace=wrap;html=1;align=center;fontSize=16;" vertex="1" parent="1">
          <mxGeometry x="390" y="500" width="120" height="60" as="geometry" />
        </mxCell>
        <mxCell id="YFebECgkl_Tr_p_fUanE-14" value="&lt;font style=&quot;font-size: 16px&quot;&gt;课程&lt;/font&gt;" style="whiteSpace=wrap;html=1;align=center;fontSize=16;" vertex="1" parent="1">
          <mxGeometry x="300" y="410" width="100" height="40" as="geometry" />
        </mxCell>
        <mxCell id="YFebECgkl_Tr_p_fUanE-15" value="课程" style="whiteSpace=wrap;html=1;align=center;fontSize=16;" vertex="1" parent="1">
          <mxGeometry x="970" y="410" width="100" height="40" as="geometry" />
        </mxCell>
        <mxCell id="YFebECgkl_Tr_p_fUanE-16" value="课程小节" style="whiteSpace=wrap;html=1;align=center;fontSize=16;" vertex="1" parent="1">
          <mxGeometry x="1275" y="650" width="100" height="40" as="geometry" />
        </mxCell>
        <mxCell id="YFebECgkl_Tr_p_fUanE-17" value="课程章节" style="whiteSpace=wrap;html=1;align=center;fontSize=16;" vertex="1" parent="1">
          <mxGeometry x="970" y="650" width="100" height="40" as="geometry" />
        </mxCell>
        <mxCell id="YFebECgkl_Tr_p_fUanE-18" value="包含" style="shape=rhombus;perimeter=rhombusPerimeter;whiteSpace=wrap;html=1;align=center;rotation=0;fontSize=16;" vertex="1" parent="1">
          <mxGeometry x="960" y="520" width="120" height="60" as="geometry" />
        </mxCell>
        <mxCell id="YFebECgkl_Tr_p_fUanE-19" value="包含" style="shape=rhombus;perimeter=rhombusPerimeter;whiteSpace=wrap;html=1;align=center;fontSize=16;" vertex="1" parent="1">
          <mxGeometry x="1115" y="640" width="120" height="60" as="geometry" />
        </mxCell>
        <mxCell id="YFebECgkl_Tr_p_fUanE-22" value="1" style="text;html=1;align=center;verticalAlign=middle;resizable=0;points=[];autosize=1;fontSize=16;" vertex="1" parent="1">
          <mxGeometry x="1000" y="480" width="20" height="20" as="geometry" />
        </mxCell>
        <mxCell id="YFebECgkl_Tr_p_fUanE-23" value="n" style="text;html=1;align=center;verticalAlign=middle;resizable=0;points=[];autosize=1;fontSize=16;" vertex="1" parent="1">
          <mxGeometry x="1000" y="630" width="20" height="20" as="geometry" />
        </mxCell>
        <mxCell id="YFebECgkl_Tr_p_fUanE-24" value="" style="endArrow=none;html=1;rounded=0;entryX=0.5;entryY=1;entryDx=0;entryDy=0;exitX=0.5;exitY=0;exitDx=0;exitDy=0;fontSize=16;" edge="1" parent="1" source="YFebECgkl_Tr_p_fUanE-17" target="YFebECgkl_Tr_p_fUanE-18">
          <mxGeometry relative="1" as="geometry">
            <mxPoint x="1010" y="650" as="sourcePoint" />
            <mxPoint x="1170" y="650" as="targetPoint" />
          </mxGeometry>
        </mxCell>
        <mxCell id="YFebECgkl_Tr_p_fUanE-25" value="" style="endArrow=none;html=1;rounded=0;entryX=0.5;entryY=1;entryDx=0;entryDy=0;exitX=0.5;exitY=0;exitDx=0;exitDy=0;fontSize=16;" edge="1" parent="1" source="YFebECgkl_Tr_p_fUanE-18" target="YFebECgkl_Tr_p_fUanE-15">
          <mxGeometry relative="1" as="geometry">
            <mxPoint x="1010" y="650" as="sourcePoint" />
            <mxPoint x="1170" y="650" as="targetPoint" />
          </mxGeometry>
        </mxCell>
        <mxCell id="YFebECgkl_Tr_p_fUanE-26" value="" style="endArrow=none;html=1;rounded=0;entryX=0;entryY=0.5;entryDx=0;entryDy=0;exitX=1;exitY=0.5;exitDx=0;exitDy=0;fontSize=16;" edge="1" parent="1" source="YFebECgkl_Tr_p_fUanE-17" target="YFebECgkl_Tr_p_fUanE-19">
          <mxGeometry relative="1" as="geometry">
            <mxPoint x="1010" y="640" as="sourcePoint" />
            <mxPoint x="1170" y="640" as="targetPoint" />
          </mxGeometry>
        </mxCell>
        <mxCell id="YFebECgkl_Tr_p_fUanE-27" value="" style="endArrow=none;html=1;rounded=0;entryX=0;entryY=0.5;entryDx=0;entryDy=0;exitX=1;exitY=0.5;exitDx=0;exitDy=0;fontSize=16;" edge="1" parent="1" source="YFebECgkl_Tr_p_fUanE-19" target="YFebECgkl_Tr_p_fUanE-16">
          <mxGeometry relative="1" as="geometry">
            <mxPoint x="995" y="640" as="sourcePoint" />
            <mxPoint x="1155" y="640" as="targetPoint" />
          </mxGeometry>
        </mxCell>
        <mxCell id="YFebECgkl_Tr_p_fUanE-28" value="1" style="text;html=1;align=center;verticalAlign=middle;resizable=0;points=[];autosize=1;fontSize=16;" vertex="1" parent="1">
          <mxGeometry x="1070" y="650" width="20" height="20" as="geometry" />
        </mxCell>
        <mxCell id="YFebECgkl_Tr_p_fUanE-29" value="n" style="text;html=1;align=center;verticalAlign=middle;resizable=0;points=[];autosize=1;fontSize=16;" vertex="1" parent="1">
          <mxGeometry x="1250" y="650" width="20" height="20" as="geometry" />
        </mxCell>
        <mxCell id="YFebECgkl_Tr_p_fUanE-30" value="" style="endArrow=none;html=1;rounded=0;exitX=0.5;exitY=0;exitDx=0;exitDy=0;entryX=0.5;entryY=1;entryDx=0;entryDy=0;fontSize=16;" edge="1" parent="1" source="YFebECgkl_Tr_p_fUanE-2" target="YFebECgkl_Tr_p_fUanE-13">
          <mxGeometry relative="1" as="geometry">
            <mxPoint x="610" y="660" as="sourcePoint" />
            <mxPoint x="770" y="660" as="targetPoint" />
          </mxGeometry>
        </mxCell>
        <mxCell id="YFebECgkl_Tr_p_fUanE-31" value="" style="endArrow=none;html=1;rounded=0;entryX=0.5;entryY=1;entryDx=0;entryDy=0;exitX=0.5;exitY=0;exitDx=0;exitDy=0;fontSize=16;" edge="1" parent="1" source="YFebECgkl_Tr_p_fUanE-13" target="YFebECgkl_Tr_p_fUanE-14">
          <mxGeometry relative="1" as="geometry">
            <mxPoint x="610" y="660" as="sourcePoint" />
            <mxPoint x="770" y="660" as="targetPoint" />
          </mxGeometry>
        </mxCell>
        <mxCell id="YFebECgkl_Tr_p_fUanE-32" value="1" style="text;html=1;align=center;verticalAlign=middle;resizable=0;points=[];autosize=1;fontSize=16;" vertex="1" parent="1">
          <mxGeometry x="455" y="610" width="20" height="20" as="geometry" />
        </mxCell>
        <mxCell id="YFebECgkl_Tr_p_fUanE-33" value="&lt;font style=&quot;font-size: 16px&quot;&gt;n&lt;/font&gt;" style="text;html=1;align=center;verticalAlign=middle;resizable=0;points=[];autosize=1;fontSize=16;" vertex="1" parent="1">
          <mxGeometry x="390" y="450" width="20" height="20" as="geometry" />
        </mxCell>
        <mxCell id="YFebECgkl_Tr_p_fUanE-34" value="" style="endArrow=none;html=1;rounded=0;entryX=0.5;entryY=1;entryDx=0;entryDy=0;exitX=0.5;exitY=0;exitDx=0;exitDy=0;fontSize=16;" edge="1" parent="1" source="YFebECgkl_Tr_p_fUanE-7" target="YFebECgkl_Tr_p_fUanE-14">
          <mxGeometry relative="1" as="geometry">
            <mxPoint x="310" y="660" as="sourcePoint" />
            <mxPoint x="470" y="660" as="targetPoint" />
          </mxGeometry>
        </mxCell>
        <mxCell id="YFebECgkl_Tr_p_fUanE-35" value="" style="endArrow=none;html=1;rounded=0;entryX=0.5;entryY=1;entryDx=0;entryDy=0;exitX=0.5;exitY=0;exitDx=0;exitDy=0;fontSize=16;" edge="1" parent="1" source="YFebECgkl_Tr_p_fUanE-1" target="YFebECgkl_Tr_p_fUanE-7">
          <mxGeometry relative="1" as="geometry">
            <mxPoint x="310" y="660" as="sourcePoint" />
            <mxPoint x="470" y="660" as="targetPoint" />
          </mxGeometry>
        </mxCell>
        <mxCell id="YFebECgkl_Tr_p_fUanE-36" value="课程小节" style="whiteSpace=wrap;html=1;align=center;fontSize=16;" vertex="1" parent="1">
          <mxGeometry x="1047.5" y="910" width="100" height="40" as="geometry" />
        </mxCell>
        <mxCell id="YFebECgkl_Tr_p_fUanE-37" value="问答评论" style="shape=rhombus;perimeter=rhombusPerimeter;whiteSpace=wrap;html=1;align=center;fontSize=16;" vertex="1" parent="1">
          <mxGeometry x="827.5" y="900" width="120" height="60" as="geometry" />
        </mxCell>
        <mxCell id="YFebECgkl_Tr_p_fUanE-38" value="记录" style="shape=rhombus;perimeter=rhombusPerimeter;whiteSpace=wrap;html=1;align=center;fontSize=16;" vertex="1" parent="1">
          <mxGeometry x="160" y="810" width="120" height="60" as="geometry" />
        </mxCell>
        <mxCell id="YFebECgkl_Tr_p_fUanE-39" value="课程小节" style="whiteSpace=wrap;html=1;align=center;fontSize=16;" vertex="1" parent="1">
          <mxGeometry x="410" y="920" width="100" height="40" as="geometry" />
        </mxCell>
        <mxCell id="YFebECgkl_Tr_p_fUanE-44" value="m" style="text;html=1;align=center;verticalAlign=middle;resizable=0;points=[];autosize=1;fontSize=16;" vertex="1" parent="1">
          <mxGeometry x="220" y="610" width="30" height="20" as="geometry" />
        </mxCell>
        <mxCell id="YFebECgkl_Tr_p_fUanE-45" value="&lt;font style=&quot;font-size: 16px&quot;&gt;n&lt;/font&gt;" style="text;html=1;align=center;verticalAlign=middle;resizable=0;points=[];autosize=1;fontSize=16;" vertex="1" parent="1">
          <mxGeometry x="290" y="450" width="20" height="20" as="geometry" />
        </mxCell>
        <mxCell id="YFebECgkl_Tr_p_fUanE-55" value="&lt;font style=&quot;font-size: 16px&quot;&gt;课程&lt;/font&gt;" style="whiteSpace=wrap;html=1;align=center;fontSize=16;" vertex="1" parent="1">
          <mxGeometry x="690" y="650" width="100" height="40" as="geometry" />
        </mxCell>
        <mxCell id="YFebECgkl_Tr_p_fUanE-56" value="&lt;font style=&quot;font-size: 16px&quot;&gt;课程方向&lt;/font&gt;" style="whiteSpace=wrap;html=1;align=center;fontSize=16;" vertex="1" parent="1">
          <mxGeometry x="530" y="410" width="100" height="40" as="geometry" />
        </mxCell>
        <mxCell id="YFebECgkl_Tr_p_fUanE-57" value="&lt;font style=&quot;font-size: 16px&quot;&gt;课程难度&lt;/font&gt;" style="whiteSpace=wrap;html=1;align=center;fontSize=16;" vertex="1" parent="1">
          <mxGeometry x="690" y="410" width="100" height="40" as="geometry" />
        </mxCell>
        <mxCell id="YFebECgkl_Tr_p_fUanE-58" value="&lt;font style=&quot;font-size: 16px&quot;&gt;课程分类&lt;/font&gt;" style="whiteSpace=wrap;html=1;align=center;fontSize=16;" vertex="1" parent="1">
          <mxGeometry x="850" y="410" width="100" height="40" as="geometry" />
        </mxCell>
        <mxCell id="YFebECgkl_Tr_p_fUanE-59" value="&lt;font style=&quot;font-size: 16px&quot;&gt;包括&lt;/font&gt;" style="shape=rhombus;perimeter=rhombusPerimeter;whiteSpace=wrap;html=1;align=center;fontSize=16;" vertex="1" parent="1">
          <mxGeometry x="680" y="520" width="120" height="60" as="geometry" />
        </mxCell>
        <mxCell id="YFebECgkl_Tr_p_fUanE-60" value="" style="endArrow=none;html=1;rounded=0;entryX=0.5;entryY=0;entryDx=0;entryDy=0;exitX=0.5;exitY=1;exitDx=0;exitDy=0;fontSize=16;" edge="1" parent="1" source="YFebECgkl_Tr_p_fUanE-56" target="YFebECgkl_Tr_p_fUanE-59">
          <mxGeometry relative="1" as="geometry">
            <mxPoint x="490" y="620" as="sourcePoint" />
            <mxPoint x="650" y="620" as="targetPoint" />
          </mxGeometry>
        </mxCell>
        <mxCell id="YFebECgkl_Tr_p_fUanE-61" value="" style="endArrow=none;html=1;rounded=0;entryX=0.5;entryY=1;entryDx=0;entryDy=0;exitX=0.5;exitY=0;exitDx=0;exitDy=0;fontSize=16;" edge="1" parent="1" source="YFebECgkl_Tr_p_fUanE-59" target="YFebECgkl_Tr_p_fUanE-57">
          <mxGeometry relative="1" as="geometry">
            <mxPoint x="490" y="620" as="sourcePoint" />
            <mxPoint x="650" y="620" as="targetPoint" />
          </mxGeometry>
        </mxCell>
        <mxCell id="YFebECgkl_Tr_p_fUanE-62" value="" style="endArrow=none;html=1;rounded=0;entryX=0.5;entryY=1;entryDx=0;entryDy=0;exitX=0.5;exitY=0;exitDx=0;exitDy=0;fontSize=16;" edge="1" parent="1" source="YFebECgkl_Tr_p_fUanE-59" target="YFebECgkl_Tr_p_fUanE-58">
          <mxGeometry relative="1" as="geometry">
            <mxPoint x="490" y="620" as="sourcePoint" />
            <mxPoint x="650" y="620" as="targetPoint" />
          </mxGeometry>
        </mxCell>
        <mxCell id="YFebECgkl_Tr_p_fUanE-63" value="" style="endArrow=none;html=1;rounded=0;entryX=0.5;entryY=1;entryDx=0;entryDy=0;exitX=0.5;exitY=0;exitDx=0;exitDy=0;fontSize=16;" edge="1" parent="1" source="YFebECgkl_Tr_p_fUanE-55" target="YFebECgkl_Tr_p_fUanE-59">
          <mxGeometry relative="1" as="geometry">
            <mxPoint x="490" y="750" as="sourcePoint" />
            <mxPoint x="650" y="750" as="targetPoint" />
          </mxGeometry>
        </mxCell>
        <mxCell id="YFebECgkl_Tr_p_fUanE-64" value="1" style="text;html=1;align=center;verticalAlign=middle;resizable=0;points=[];autosize=1;fontSize=16;" vertex="1" parent="1">
          <mxGeometry x="560" y="450" width="20" height="20" as="geometry" />
        </mxCell>
        <mxCell id="YFebECgkl_Tr_p_fUanE-65" value="1" style="text;html=1;align=center;verticalAlign=middle;resizable=0;points=[];autosize=1;fontSize=16;" vertex="1" parent="1">
          <mxGeometry x="720" y="450" width="20" height="20" as="geometry" />
        </mxCell>
        <mxCell id="YFebECgkl_Tr_p_fUanE-66" value="1" style="text;html=1;align=center;verticalAlign=middle;resizable=0;points=[];autosize=1;fontSize=16;" vertex="1" parent="1">
          <mxGeometry x="890" y="450" width="20" height="20" as="geometry" />
        </mxCell>
        <mxCell id="YFebECgkl_Tr_p_fUanE-67" value="n" style="text;html=1;align=center;verticalAlign=middle;resizable=0;points=[];autosize=1;fontSize=16;" vertex="1" parent="1">
          <mxGeometry x="710" y="630" width="20" height="20" as="geometry" />
        </mxCell>
        <mxCell id="YFebECgkl_Tr_p_fUanE-68" value="" style="endArrow=none;html=1;rounded=0;exitX=1;exitY=0.5;exitDx=0;exitDy=0;entryX=0;entryY=0.5;entryDx=0;entryDy=0;fontSize=16;" edge="1" parent="1" source="YFebECgkl_Tr_p_fUanE-10" target="YFebECgkl_Tr_p_fUanE-12">
          <mxGeometry relative="1" as="geometry">
            <mxPoint x="917.5" y="910" as="sourcePoint" />
            <mxPoint x="1077.5" y="910" as="targetPoint" />
          </mxGeometry>
        </mxCell>
        <mxCell id="YFebECgkl_Tr_p_fUanE-69" value="m" style="text;html=1;align=center;verticalAlign=middle;resizable=0;points=[];autosize=1;fontSize=16;" vertex="1" parent="1">
          <mxGeometry x="752.5" y="780" width="30" height="20" as="geometry" />
        </mxCell>
        <mxCell id="YFebECgkl_Tr_p_fUanE-70" value="" style="endArrow=none;html=1;rounded=0;exitX=1;exitY=0.5;exitDx=0;exitDy=0;entryX=0;entryY=0.5;entryDx=0;entryDy=0;fontSize=16;" edge="1" parent="1" source="YFebECgkl_Tr_p_fUanE-12" target="YFebECgkl_Tr_p_fUanE-11">
          <mxGeometry relative="1" as="geometry">
            <mxPoint x="1107.5" y="750" as="sourcePoint" />
            <mxPoint x="1267.5" y="750" as="targetPoint" />
          </mxGeometry>
        </mxCell>
        <mxCell id="YFebECgkl_Tr_p_fUanE-71" value="n" style="text;html=1;align=center;verticalAlign=middle;resizable=0;points=[];autosize=1;fontSize=16;" vertex="1" parent="1">
          <mxGeometry x="1017.5" y="780" width="20" height="20" as="geometry" />
        </mxCell>
        <mxCell id="YFebECgkl_Tr_p_fUanE-72" value="" style="endArrow=none;html=1;rounded=0;exitX=1;exitY=0.5;exitDx=0;exitDy=0;entryX=0;entryY=0.5;entryDx=0;entryDy=0;fontSize=16;" edge="1" parent="1" source="YFebECgkl_Tr_p_fUanE-8" target="YFebECgkl_Tr_p_fUanE-37">
          <mxGeometry relative="1" as="geometry">
            <mxPoint x="1107.5" y="900" as="sourcePoint" />
            <mxPoint x="1267.5" y="900" as="targetPoint" />
          </mxGeometry>
        </mxCell>
        <mxCell id="YFebECgkl_Tr_p_fUanE-73" value="" style="endArrow=none;html=1;rounded=0;exitX=1;exitY=0.5;exitDx=0;exitDy=0;entryX=0;entryY=0.5;entryDx=0;entryDy=0;fontSize=16;" edge="1" parent="1" source="YFebECgkl_Tr_p_fUanE-37" target="YFebECgkl_Tr_p_fUanE-36">
          <mxGeometry relative="1" as="geometry">
            <mxPoint x="1107.5" y="900" as="sourcePoint" />
            <mxPoint x="1267.5" y="900" as="targetPoint" />
          </mxGeometry>
        </mxCell>
        <mxCell id="YFebECgkl_Tr_p_fUanE-74" value="m" style="text;html=1;align=center;verticalAlign=middle;resizable=0;points=[];autosize=1;fontSize=16;" vertex="1" parent="1">
          <mxGeometry x="752.5" y="910" width="30" height="20" as="geometry" />
        </mxCell>
        <mxCell id="YFebECgkl_Tr_p_fUanE-75" value="n" style="text;html=1;align=center;verticalAlign=middle;resizable=0;points=[];autosize=1;fontSize=16;" vertex="1" parent="1">
          <mxGeometry x="1027.5" y="910" width="20" height="20" as="geometry" />
        </mxCell>
        <mxCell id="YFebECgkl_Tr_p_fUanE-76" value="" style="endArrow=none;html=1;rounded=0;exitX=0.5;exitY=0;exitDx=0;exitDy=0;entryX=0.5;entryY=1;entryDx=0;entryDy=0;fontSize=16;" edge="1" parent="1" source="YFebECgkl_Tr_p_fUanE-9" target="YFebECgkl_Tr_p_fUanE-38">
          <mxGeometry relative="1" as="geometry">
            <mxPoint x="350" y="530" as="sourcePoint" />
            <mxPoint x="510" y="530" as="targetPoint" />
          </mxGeometry>
        </mxCell>
        <mxCell id="YFebECgkl_Tr_p_fUanE-77" value="" style="endArrow=none;html=1;rounded=0;exitX=0.5;exitY=0;exitDx=0;exitDy=0;entryX=0.5;entryY=1;entryDx=0;entryDy=0;fontSize=16;" edge="1" parent="1" source="YFebECgkl_Tr_p_fUanE-38" target="YFebECgkl_Tr_p_fUanE-5">
          <mxGeometry relative="1" as="geometry">
            <mxPoint x="350" y="530" as="sourcePoint" />
            <mxPoint x="510" y="530" as="targetPoint" />
          </mxGeometry>
        </mxCell>
        <mxCell id="YFebECgkl_Tr_p_fUanE-79" value="1" style="text;html=1;align=center;verticalAlign=middle;resizable=0;points=[];autosize=1;fontSize=16;" vertex="1" parent="1">
          <mxGeometry x="200" y="900" width="20" height="20" as="geometry" />
        </mxCell>
        <mxCell id="YFebECgkl_Tr_p_fUanE-80" value="n" style="text;html=1;align=center;verticalAlign=middle;resizable=0;points=[];autosize=1;fontSize=16;" vertex="1" parent="1">
          <mxGeometry x="290" y="750" width="20" height="20" as="geometry" />
        </mxCell>
        <mxCell id="YFebECgkl_Tr_p_fUanE-82" value="属于" style="shape=rhombus;perimeter=rhombusPerimeter;whiteSpace=wrap;html=1;align=center;fontSize=16;" vertex="1" parent="1">
          <mxGeometry x="400" y="810" width="120" height="60" as="geometry" />
        </mxCell>
        <mxCell id="YFebECgkl_Tr_p_fUanE-83" value="" style="endArrow=none;html=1;rounded=0;entryX=0.5;entryY=0;entryDx=0;entryDy=0;exitX=0.5;exitY=1;exitDx=0;exitDy=0;fontSize=16;" edge="1" parent="1" source="YFebECgkl_Tr_p_fUanE-5" target="YFebECgkl_Tr_p_fUanE-82">
          <mxGeometry relative="1" as="geometry">
            <mxPoint x="350" y="610" as="sourcePoint" />
            <mxPoint x="510" y="610" as="targetPoint" />
          </mxGeometry>
        </mxCell>
        <mxCell id="YFebECgkl_Tr_p_fUanE-85" value="" style="endArrow=none;html=1;rounded=0;entryX=0.5;entryY=1;entryDx=0;entryDy=0;exitX=0.5;exitY=0;exitDx=0;exitDy=0;fontSize=16;" edge="1" parent="1" source="YFebECgkl_Tr_p_fUanE-39" target="YFebECgkl_Tr_p_fUanE-82">
          <mxGeometry relative="1" as="geometry">
            <mxPoint x="350" y="820" as="sourcePoint" />
            <mxPoint x="510" y="820" as="targetPoint" />
          </mxGeometry>
        </mxCell>
        <mxCell id="YFebECgkl_Tr_p_fUanE-86" value="1" style="text;html=1;align=center;verticalAlign=middle;resizable=0;points=[];autosize=1;fontSize=16;" vertex="1" parent="1">
          <mxGeometry x="380" y="750" width="20" height="20" as="geometry" />
        </mxCell>
        <mxCell id="YFebECgkl_Tr_p_fUanE-87" value="1" style="text;html=1;align=center;verticalAlign=middle;resizable=0;points=[];autosize=1;fontSize=16;" vertex="1" parent="1">
          <mxGeometry x="460" y="900" width="20" height="20" as="geometry" />
        </mxCell>
      </root>
    </mxGraphModel>
  </diagram>
  <diagram id="-ymrzdbVbwC_RnUTgOz0" name="总E-R图">
    <mxGraphModel dx="1227" dy="559" grid="1" gridSize="10" guides="1" tooltips="1" connect="1" arrows="1" fold="1" page="1" pageScale="1" pageWidth="827" pageHeight="1169" math="0" shadow="0">
      <root>
        <mxCell id="ZhpGY93QoY0iyltNjLts-0" />
        <mxCell id="ZhpGY93QoY0iyltNjLts-1" parent="ZhpGY93QoY0iyltNjLts-0" />
        <mxCell id="xpnk6BXXVgzJLCjmbap--0" value="&lt;font style=&quot;font-size: 16px&quot;&gt;学生&lt;/font&gt;" style="whiteSpace=wrap;html=1;align=center;fontSize=16;" vertex="1" parent="ZhpGY93QoY0iyltNjLts-1">
          <mxGeometry x="680" y="720" width="100" height="40" as="geometry" />
        </mxCell>
        <mxCell id="xpnk6BXXVgzJLCjmbap--1" value="&lt;font style=&quot;font-size: 16px&quot;&gt;老师&lt;/font&gt;" style="whiteSpace=wrap;html=1;align=center;fontSize=16;" vertex="1" parent="ZhpGY93QoY0iyltNjLts-1">
          <mxGeometry x="310" y="450" width="100" height="40" as="geometry" />
        </mxCell>
        <mxCell id="xpnk6BXXVgzJLCjmbap--2" value="笔记" style="whiteSpace=wrap;html=1;align=center;fontSize=16;" vertex="1" parent="ZhpGY93QoY0iyltNjLts-1">
          <mxGeometry x="950" y="720" width="100" height="40" as="geometry" />
        </mxCell>
        <mxCell id="xpnk6BXXVgzJLCjmbap--3" value="&lt;font style=&quot;font-size: 16px&quot;&gt;选课&lt;/font&gt;" style="shape=rhombus;perimeter=rhombusPerimeter;whiteSpace=wrap;html=1;align=center;fontSize=16;" vertex="1" parent="ZhpGY93QoY0iyltNjLts-1">
          <mxGeometry x="470" y="570" width="120" height="60" as="geometry" />
        </mxCell>
        <mxCell id="xpnk6BXXVgzJLCjmbap--12" value="课程小节" style="whiteSpace=wrap;html=1;align=center;fontSize=16;" vertex="1" parent="ZhpGY93QoY0iyltNjLts-1">
          <mxGeometry x="1220" y="720" width="100" height="40" as="geometry" />
        </mxCell>
        <mxCell id="xpnk6BXXVgzJLCjmbap--13" value="课程章节" style="whiteSpace=wrap;html=1;align=center;fontSize=16;" vertex="1" parent="ZhpGY93QoY0iyltNjLts-1">
          <mxGeometry x="1220" y="450" width="100" height="40" as="geometry" />
        </mxCell>
        <mxCell id="xpnk6BXXVgzJLCjmbap--14" value="包含" style="shape=rhombus;perimeter=rhombusPerimeter;whiteSpace=wrap;html=1;align=center;rotation=0;fontSize=16;" vertex="1" parent="ZhpGY93QoY0iyltNjLts-1">
          <mxGeometry x="940" y="440" width="120" height="60" as="geometry" />
        </mxCell>
        <mxCell id="xpnk6BXXVgzJLCjmbap--15" value="包含" style="shape=rhombus;perimeter=rhombusPerimeter;whiteSpace=wrap;html=1;align=center;fontSize=16;" vertex="1" parent="ZhpGY93QoY0iyltNjLts-1">
          <mxGeometry x="1210" y="570" width="120" height="60" as="geometry" />
        </mxCell>
        <mxCell id="xpnk6BXXVgzJLCjmbap--16" value="1" style="text;html=1;align=center;verticalAlign=middle;resizable=0;points=[];autosize=1;fontSize=16;" vertex="1" parent="ZhpGY93QoY0iyltNjLts-1">
          <mxGeometry x="785" y="450" width="20" height="20" as="geometry" />
        </mxCell>
        <mxCell id="xpnk6BXXVgzJLCjmbap--17" value="n" style="text;html=1;align=center;verticalAlign=middle;resizable=0;points=[];autosize=1;fontSize=16;" vertex="1" parent="ZhpGY93QoY0iyltNjLts-1">
          <mxGeometry x="1200" y="440" width="20" height="20" as="geometry" />
        </mxCell>
        <mxCell id="xpnk6BXXVgzJLCjmbap--18" value="" style="endArrow=none;html=1;rounded=0;entryX=1;entryY=0.5;entryDx=0;entryDy=0;exitX=0;exitY=0.5;exitDx=0;exitDy=0;fontSize=16;" edge="1" parent="ZhpGY93QoY0iyltNjLts-1" source="xpnk6BXXVgzJLCjmbap--13" target="xpnk6BXXVgzJLCjmbap--14">
          <mxGeometry relative="1" as="geometry">
            <mxPoint x="1406" y="650" as="sourcePoint" />
            <mxPoint x="1090" y="470" as="targetPoint" />
          </mxGeometry>
        </mxCell>
        <mxCell id="xpnk6BXXVgzJLCjmbap--19" value="" style="endArrow=none;html=1;rounded=0;entryX=1;entryY=0.5;entryDx=0;entryDy=0;exitX=0;exitY=0.5;exitDx=0;exitDy=0;fontSize=16;" edge="1" parent="ZhpGY93QoY0iyltNjLts-1" source="xpnk6BXXVgzJLCjmbap--14" target="xpnk6BXXVgzJLCjmbap--36">
          <mxGeometry relative="1" as="geometry">
            <mxPoint x="1291" y="650" as="sourcePoint" />
            <mxPoint x="1300.9999999999995" y="450" as="targetPoint" />
          </mxGeometry>
        </mxCell>
        <mxCell id="xpnk6BXXVgzJLCjmbap--20" value="" style="endArrow=none;html=1;rounded=0;entryX=0.5;entryY=0;entryDx=0;entryDy=0;exitX=0.5;exitY=1;exitDx=0;exitDy=0;fontSize=16;" edge="1" parent="ZhpGY93QoY0iyltNjLts-1" source="xpnk6BXXVgzJLCjmbap--13" target="xpnk6BXXVgzJLCjmbap--15">
          <mxGeometry relative="1" as="geometry">
            <mxPoint x="1471" y="640" as="sourcePoint" />
            <mxPoint x="1631" y="640" as="targetPoint" />
          </mxGeometry>
        </mxCell>
        <mxCell id="xpnk6BXXVgzJLCjmbap--21" value="" style="endArrow=none;html=1;rounded=0;entryX=0.5;entryY=0;entryDx=0;entryDy=0;exitX=0.5;exitY=1;exitDx=0;exitDy=0;fontSize=16;" edge="1" parent="ZhpGY93QoY0iyltNjLts-1" source="xpnk6BXXVgzJLCjmbap--15" target="xpnk6BXXVgzJLCjmbap--12">
          <mxGeometry relative="1" as="geometry">
            <mxPoint x="1456" y="640" as="sourcePoint" />
            <mxPoint x="1616" y="640" as="targetPoint" />
          </mxGeometry>
        </mxCell>
        <mxCell id="xpnk6BXXVgzJLCjmbap--22" value="1" style="text;html=1;align=center;verticalAlign=middle;resizable=0;points=[];autosize=1;fontSize=16;" vertex="1" parent="ZhpGY93QoY0iyltNjLts-1">
          <mxGeometry x="1280" y="500" width="20" height="20" as="geometry" />
        </mxCell>
        <mxCell id="xpnk6BXXVgzJLCjmbap--23" value="n" style="text;html=1;align=center;verticalAlign=middle;resizable=0;points=[];autosize=1;fontSize=16;" vertex="1" parent="ZhpGY93QoY0iyltNjLts-1">
          <mxGeometry x="1270" y="695" width="20" height="20" as="geometry" />
        </mxCell>
        <mxCell id="xpnk6BXXVgzJLCjmbap--24" value="" style="endArrow=none;html=1;rounded=0;exitX=1;exitY=0.5;exitDx=0;exitDy=0;fontSize=16;entryX=0;entryY=0.5;entryDx=0;entryDy=0;" edge="1" parent="ZhpGY93QoY0iyltNjLts-1" source="xpnk6BXXVgzJLCjmbap--1" target="xpnk6BXXVgzJLCjmbap--72">
          <mxGeometry relative="1" as="geometry">
            <mxPoint x="400" y="470" as="sourcePoint" />
            <mxPoint x="330" y="370" as="targetPoint" />
          </mxGeometry>
        </mxCell>
        <mxCell id="xpnk6BXXVgzJLCjmbap--25" value="" style="endArrow=none;html=1;rounded=0;entryX=0;entryY=0.5;entryDx=0;entryDy=0;fontSize=16;exitX=1;exitY=0.5;exitDx=0;exitDy=0;" edge="1" parent="ZhpGY93QoY0iyltNjLts-1" source="xpnk6BXXVgzJLCjmbap--72" target="xpnk6BXXVgzJLCjmbap--36">
          <mxGeometry relative="1" as="geometry">
            <mxPoint x="460" y="470" as="sourcePoint" />
            <mxPoint x="1150" y="780" as="targetPoint" />
          </mxGeometry>
        </mxCell>
        <mxCell id="xpnk6BXXVgzJLCjmbap--26" value="1" style="text;html=1;align=center;verticalAlign=middle;resizable=0;points=[];autosize=1;fontSize=16;" vertex="1" parent="ZhpGY93QoY0iyltNjLts-1">
          <mxGeometry x="410" y="440" width="20" height="20" as="geometry" />
        </mxCell>
        <mxCell id="xpnk6BXXVgzJLCjmbap--27" value="&lt;font style=&quot;font-size: 16px&quot;&gt;n&lt;/font&gt;" style="text;html=1;align=center;verticalAlign=middle;resizable=0;points=[];autosize=1;fontSize=16;" vertex="1" parent="ZhpGY93QoY0iyltNjLts-1">
          <mxGeometry x="650" y="450" width="20" height="20" as="geometry" />
        </mxCell>
        <mxCell id="xpnk6BXXVgzJLCjmbap--28" value="" style="endArrow=none;html=1;rounded=0;entryX=0.5;entryY=1;entryDx=0;entryDy=0;exitX=0.5;exitY=0;exitDx=0;exitDy=0;fontSize=16;" edge="1" parent="ZhpGY93QoY0iyltNjLts-1" source="xpnk6BXXVgzJLCjmbap--3" target="xpnk6BXXVgzJLCjmbap--36">
          <mxGeometry relative="1" as="geometry">
            <mxPoint x="690" y="780" as="sourcePoint" />
            <mxPoint x="850" y="780" as="targetPoint" />
          </mxGeometry>
        </mxCell>
        <mxCell id="xpnk6BXXVgzJLCjmbap--29" value="" style="endArrow=none;html=1;rounded=0;entryX=0.5;entryY=1;entryDx=0;entryDy=0;exitX=0.5;exitY=0;exitDx=0;exitDy=0;fontSize=16;" edge="1" parent="ZhpGY93QoY0iyltNjLts-1" source="xpnk6BXXVgzJLCjmbap--0" target="xpnk6BXXVgzJLCjmbap--3">
          <mxGeometry relative="1" as="geometry">
            <mxPoint x="700" y="730" as="sourcePoint" />
            <mxPoint x="860" y="730" as="targetPoint" />
          </mxGeometry>
        </mxCell>
        <mxCell id="xpnk6BXXVgzJLCjmbap--34" value="m" style="text;html=1;align=center;verticalAlign=middle;resizable=0;points=[];autosize=1;fontSize=16;" vertex="1" parent="ZhpGY93QoY0iyltNjLts-1">
          <mxGeometry x="655" y="700" width="30" height="20" as="geometry" />
        </mxCell>
        <mxCell id="xpnk6BXXVgzJLCjmbap--35" value="&lt;font style=&quot;font-size: 16px&quot;&gt;n&lt;/font&gt;" style="text;html=1;align=center;verticalAlign=middle;resizable=0;points=[];autosize=1;fontSize=16;" vertex="1" parent="ZhpGY93QoY0iyltNjLts-1">
          <mxGeometry x="670" y="490" width="20" height="20" as="geometry" />
        </mxCell>
        <mxCell id="xpnk6BXXVgzJLCjmbap--36" value="&lt;font style=&quot;font-size: 16px&quot;&gt;课程&lt;/font&gt;" style="whiteSpace=wrap;html=1;align=center;fontSize=16;" vertex="1" parent="ZhpGY93QoY0iyltNjLts-1">
          <mxGeometry x="680" y="450" width="100" height="40" as="geometry" />
        </mxCell>
        <mxCell id="xpnk6BXXVgzJLCjmbap--37" value="&lt;font style=&quot;font-size: 16px&quot;&gt;课程方向&lt;/font&gt;" style="whiteSpace=wrap;html=1;align=center;fontSize=16;" vertex="1" parent="ZhpGY93QoY0iyltNjLts-1">
          <mxGeometry x="520" y="210" width="100" height="40" as="geometry" />
        </mxCell>
        <mxCell id="xpnk6BXXVgzJLCjmbap--38" value="&lt;font style=&quot;font-size: 16px&quot;&gt;课程难度&lt;/font&gt;" style="whiteSpace=wrap;html=1;align=center;fontSize=16;" vertex="1" parent="ZhpGY93QoY0iyltNjLts-1">
          <mxGeometry x="680" y="210" width="100" height="40" as="geometry" />
        </mxCell>
        <mxCell id="xpnk6BXXVgzJLCjmbap--39" value="&lt;font style=&quot;font-size: 16px&quot;&gt;课程分类&lt;/font&gt;" style="whiteSpace=wrap;html=1;align=center;fontSize=16;" vertex="1" parent="ZhpGY93QoY0iyltNjLts-1">
          <mxGeometry x="840" y="210" width="100" height="40" as="geometry" />
        </mxCell>
        <mxCell id="xpnk6BXXVgzJLCjmbap--40" value="&lt;font style=&quot;font-size: 16px&quot;&gt;包括&lt;/font&gt;" style="shape=rhombus;perimeter=rhombusPerimeter;whiteSpace=wrap;html=1;align=center;fontSize=16;" vertex="1" parent="ZhpGY93QoY0iyltNjLts-1">
          <mxGeometry x="670" y="320" width="120" height="60" as="geometry" />
        </mxCell>
        <mxCell id="xpnk6BXXVgzJLCjmbap--41" value="" style="endArrow=none;html=1;rounded=0;entryX=0.5;entryY=0;entryDx=0;entryDy=0;exitX=0.5;exitY=1;exitDx=0;exitDy=0;fontSize=16;" edge="1" parent="ZhpGY93QoY0iyltNjLts-1" source="xpnk6BXXVgzJLCjmbap--37" target="xpnk6BXXVgzJLCjmbap--40">
          <mxGeometry relative="1" as="geometry">
            <mxPoint x="480" y="420" as="sourcePoint" />
            <mxPoint x="640" y="420" as="targetPoint" />
          </mxGeometry>
        </mxCell>
        <mxCell id="xpnk6BXXVgzJLCjmbap--42" value="" style="endArrow=none;html=1;rounded=0;entryX=0.5;entryY=1;entryDx=0;entryDy=0;exitX=0.5;exitY=0;exitDx=0;exitDy=0;fontSize=16;" edge="1" parent="ZhpGY93QoY0iyltNjLts-1" source="xpnk6BXXVgzJLCjmbap--40" target="xpnk6BXXVgzJLCjmbap--38">
          <mxGeometry relative="1" as="geometry">
            <mxPoint x="480" y="420" as="sourcePoint" />
            <mxPoint x="640" y="420" as="targetPoint" />
          </mxGeometry>
        </mxCell>
        <mxCell id="xpnk6BXXVgzJLCjmbap--43" value="" style="endArrow=none;html=1;rounded=0;entryX=0.5;entryY=1;entryDx=0;entryDy=0;exitX=0.5;exitY=0;exitDx=0;exitDy=0;fontSize=16;" edge="1" parent="ZhpGY93QoY0iyltNjLts-1" source="xpnk6BXXVgzJLCjmbap--40" target="xpnk6BXXVgzJLCjmbap--39">
          <mxGeometry relative="1" as="geometry">
            <mxPoint x="480" y="420" as="sourcePoint" />
            <mxPoint x="640" y="420" as="targetPoint" />
          </mxGeometry>
        </mxCell>
        <mxCell id="xpnk6BXXVgzJLCjmbap--44" value="" style="endArrow=none;html=1;rounded=0;entryX=0.5;entryY=1;entryDx=0;entryDy=0;exitX=0.5;exitY=0;exitDx=0;exitDy=0;fontSize=16;" edge="1" parent="ZhpGY93QoY0iyltNjLts-1" source="xpnk6BXXVgzJLCjmbap--36" target="xpnk6BXXVgzJLCjmbap--40">
          <mxGeometry relative="1" as="geometry">
            <mxPoint x="480" y="550" as="sourcePoint" />
            <mxPoint x="640" y="550" as="targetPoint" />
          </mxGeometry>
        </mxCell>
        <mxCell id="xpnk6BXXVgzJLCjmbap--45" value="1" style="text;html=1;align=center;verticalAlign=middle;resizable=0;points=[];autosize=1;fontSize=16;" vertex="1" parent="ZhpGY93QoY0iyltNjLts-1">
          <mxGeometry x="550" y="250" width="20" height="20" as="geometry" />
        </mxCell>
        <mxCell id="xpnk6BXXVgzJLCjmbap--46" value="1" style="text;html=1;align=center;verticalAlign=middle;resizable=0;points=[];autosize=1;fontSize=16;" vertex="1" parent="ZhpGY93QoY0iyltNjLts-1">
          <mxGeometry x="710" y="250" width="20" height="20" as="geometry" />
        </mxCell>
        <mxCell id="xpnk6BXXVgzJLCjmbap--47" value="1" style="text;html=1;align=center;verticalAlign=middle;resizable=0;points=[];autosize=1;fontSize=16;" vertex="1" parent="ZhpGY93QoY0iyltNjLts-1">
          <mxGeometry x="880" y="250" width="20" height="20" as="geometry" />
        </mxCell>
        <mxCell id="xpnk6BXXVgzJLCjmbap--48" value="n" style="text;html=1;align=center;verticalAlign=middle;resizable=0;points=[];autosize=1;fontSize=16;" vertex="1" parent="ZhpGY93QoY0iyltNjLts-1">
          <mxGeometry x="710" y="430" width="20" height="20" as="geometry" />
        </mxCell>
        <mxCell id="xpnk6BXXVgzJLCjmbap--53" value="" style="endArrow=none;html=1;rounded=0;exitX=0.5;exitY=0;exitDx=0;exitDy=0;fontSize=16;entryX=0;entryY=0.5;entryDx=0;entryDy=0;" edge="1" parent="ZhpGY93QoY0iyltNjLts-1" source="xpnk6BXXVgzJLCjmbap--0" target="xpnk6BXXVgzJLCjmbap--83">
          <mxGeometry relative="1" as="geometry">
            <mxPoint x="1135" y="1200" as="sourcePoint" />
            <mxPoint x="910" y="850" as="targetPoint" />
          </mxGeometry>
        </mxCell>
        <mxCell id="xpnk6BXXVgzJLCjmbap--62" value="" style="endArrow=none;html=1;rounded=0;exitX=1;exitY=0.5;exitDx=0;exitDy=0;fontSize=16;entryX=0;entryY=0.5;entryDx=0;entryDy=0;" edge="1" parent="ZhpGY93QoY0iyltNjLts-1" source="xpnk6BXXVgzJLCjmbap--2" target="xpnk6BXXVgzJLCjmbap--75">
          <mxGeometry relative="1" as="geometry">
            <mxPoint x="190" y="780" as="sourcePoint" />
            <mxPoint x="1130" y="850" as="targetPoint" />
          </mxGeometry>
        </mxCell>
        <mxCell id="xpnk6BXXVgzJLCjmbap--66" value="评价" style="shape=rhombus;perimeter=rhombusPerimeter;whiteSpace=wrap;html=1;align=center;fontSize=16;" vertex="1" parent="ZhpGY93QoY0iyltNjLts-1">
          <mxGeometry x="670" y="570" width="120" height="60" as="geometry" />
        </mxCell>
        <mxCell id="xpnk6BXXVgzJLCjmbap--68" value="" style="endArrow=none;html=1;rounded=0;fontSize=16;entryX=0.5;entryY=1;entryDx=0;entryDy=0;exitX=0.5;exitY=0;exitDx=0;exitDy=0;" edge="1" parent="ZhpGY93QoY0iyltNjLts-1" source="xpnk6BXXVgzJLCjmbap--66" target="xpnk6BXXVgzJLCjmbap--36">
          <mxGeometry relative="1" as="geometry">
            <mxPoint x="870" y="1060" as="sourcePoint" />
            <mxPoint x="770" y="920" as="targetPoint" />
          </mxGeometry>
        </mxCell>
        <mxCell id="xpnk6BXXVgzJLCjmbap--69" value="" style="endArrow=none;html=1;rounded=0;fontSize=16;entryX=0.5;entryY=1;entryDx=0;entryDy=0;exitX=0.5;exitY=0;exitDx=0;exitDy=0;" edge="1" parent="ZhpGY93QoY0iyltNjLts-1" source="xpnk6BXXVgzJLCjmbap--0" target="xpnk6BXXVgzJLCjmbap--66">
          <mxGeometry relative="1" as="geometry">
            <mxPoint x="740" y="580" as="sourcePoint" />
            <mxPoint x="740" y="500" as="targetPoint" />
          </mxGeometry>
        </mxCell>
        <mxCell id="xpnk6BXXVgzJLCjmbap--70" value="m" style="text;html=1;align=center;verticalAlign=middle;resizable=0;points=[];autosize=1;fontSize=16;" vertex="1" parent="ZhpGY93QoY0iyltNjLts-1">
          <mxGeometry x="705" y="690" width="30" height="20" as="geometry" />
        </mxCell>
        <mxCell id="xpnk6BXXVgzJLCjmbap--71" value="n" style="text;html=1;align=center;verticalAlign=middle;resizable=0;points=[];autosize=1;fontSize=16;" vertex="1" parent="ZhpGY93QoY0iyltNjLts-1">
          <mxGeometry x="710" y="500" width="20" height="20" as="geometry" />
        </mxCell>
        <mxCell id="xpnk6BXXVgzJLCjmbap--72" value="&lt;font style=&quot;font-size: 16px&quot;&gt;讲授&lt;/font&gt;" style="shape=rhombus;perimeter=rhombusPerimeter;whiteSpace=wrap;html=1;align=center;fontSize=16;" vertex="1" parent="ZhpGY93QoY0iyltNjLts-1">
          <mxGeometry x="470" y="440" width="120" height="60" as="geometry" />
        </mxCell>
        <mxCell id="xpnk6BXXVgzJLCjmbap--74" value="记录" style="shape=rhombus;perimeter=rhombusPerimeter;whiteSpace=wrap;html=1;align=center;fontSize=16;" vertex="1" parent="ZhpGY93QoY0iyltNjLts-1">
          <mxGeometry x="812.5" y="715" width="95" height="50" as="geometry" />
        </mxCell>
        <mxCell id="xpnk6BXXVgzJLCjmbap--75" value="属于" style="shape=rhombus;perimeter=rhombusPerimeter;whiteSpace=wrap;html=1;align=center;fontSize=16;" vertex="1" parent="ZhpGY93QoY0iyltNjLts-1">
          <mxGeometry x="1090" y="715" width="90" height="50" as="geometry" />
        </mxCell>
        <mxCell id="xpnk6BXXVgzJLCjmbap--76" value="" style="endArrow=none;html=1;rounded=0;exitX=1;exitY=0.5;exitDx=0;exitDy=0;fontSize=16;entryX=0;entryY=0.5;entryDx=0;entryDy=0;" edge="1" parent="ZhpGY93QoY0iyltNjLts-1" source="xpnk6BXXVgzJLCjmbap--74" target="xpnk6BXXVgzJLCjmbap--2">
          <mxGeometry relative="1" as="geometry">
            <mxPoint x="1010" y="769.9999999999998" as="sourcePoint" />
            <mxPoint x="1140" y="859.9999999999998" as="targetPoint" />
          </mxGeometry>
        </mxCell>
        <mxCell id="xpnk6BXXVgzJLCjmbap--77" value="" style="endArrow=none;html=1;rounded=0;exitX=1;exitY=0.5;exitDx=0;exitDy=0;fontSize=16;entryX=0;entryY=0.5;entryDx=0;entryDy=0;" edge="1" parent="ZhpGY93QoY0iyltNjLts-1" source="xpnk6BXXVgzJLCjmbap--0" target="xpnk6BXXVgzJLCjmbap--74">
          <mxGeometry relative="1" as="geometry">
            <mxPoint x="1020" y="779.9999999999998" as="sourcePoint" />
            <mxPoint x="1150" y="869.9999999999998" as="targetPoint" />
          </mxGeometry>
        </mxCell>
        <mxCell id="xpnk6BXXVgzJLCjmbap--78" value="1" style="text;html=1;align=center;verticalAlign=middle;resizable=0;points=[];autosize=1;fontSize=16;" vertex="1" parent="ZhpGY93QoY0iyltNjLts-1">
          <mxGeometry x="780" y="740" width="20" height="20" as="geometry" />
        </mxCell>
        <mxCell id="xpnk6BXXVgzJLCjmbap--79" value="n" style="text;html=1;align=center;verticalAlign=middle;resizable=0;points=[];autosize=1;fontSize=16;" vertex="1" parent="ZhpGY93QoY0iyltNjLts-1">
          <mxGeometry x="920" y="740" width="20" height="20" as="geometry" />
        </mxCell>
        <mxCell id="xpnk6BXXVgzJLCjmbap--80" value="" style="endArrow=none;html=1;rounded=0;exitX=1;exitY=0.5;exitDx=0;exitDy=0;fontSize=16;entryX=0;entryY=0.5;entryDx=0;entryDy=0;" edge="1" parent="ZhpGY93QoY0iyltNjLts-1" source="xpnk6BXXVgzJLCjmbap--75" target="xpnk6BXXVgzJLCjmbap--12">
          <mxGeometry relative="1" as="geometry">
            <mxPoint x="1010" y="769.9999999999998" as="sourcePoint" />
            <mxPoint x="1140" y="859.9999999999998" as="targetPoint" />
          </mxGeometry>
        </mxCell>
        <mxCell id="xpnk6BXXVgzJLCjmbap--81" value="1" style="text;html=1;align=center;verticalAlign=middle;resizable=0;points=[];autosize=1;fontSize=16;" vertex="1" parent="ZhpGY93QoY0iyltNjLts-1">
          <mxGeometry x="1050" y="740" width="20" height="20" as="geometry" />
        </mxCell>
        <mxCell id="xpnk6BXXVgzJLCjmbap--82" value="n" style="text;html=1;align=center;verticalAlign=middle;resizable=0;points=[];autosize=1;fontSize=16;" vertex="1" parent="ZhpGY93QoY0iyltNjLts-1">
          <mxGeometry x="1200" y="740" width="20" height="20" as="geometry" />
        </mxCell>
        <mxCell id="xpnk6BXXVgzJLCjmbap--83" value="问答评论" style="shape=rhombus;perimeter=rhombusPerimeter;whiteSpace=wrap;html=1;align=center;fontSize=16;" vertex="1" parent="ZhpGY93QoY0iyltNjLts-1">
          <mxGeometry x="940" y="570" width="120" height="60" as="geometry" />
        </mxCell>
        <mxCell id="xpnk6BXXVgzJLCjmbap--84" value="" style="endArrow=none;html=1;rounded=0;exitX=1;exitY=0.5;exitDx=0;exitDy=0;fontSize=16;entryX=0.5;entryY=0;entryDx=0;entryDy=0;" edge="1" parent="ZhpGY93QoY0iyltNjLts-1" source="xpnk6BXXVgzJLCjmbap--83" target="xpnk6BXXVgzJLCjmbap--12">
          <mxGeometry relative="1" as="geometry">
            <mxPoint x="740" y="729.9999999999998" as="sourcePoint" />
            <mxPoint x="950" y="610" as="targetPoint" />
          </mxGeometry>
        </mxCell>
        <mxCell id="xpnk6BXXVgzJLCjmbap--85" value="m" style="text;html=1;align=center;verticalAlign=middle;resizable=0;points=[];autosize=1;fontSize=16;" vertex="1" parent="ZhpGY93QoY0iyltNjLts-1">
          <mxGeometry x="755" y="700" width="30" height="20" as="geometry" />
        </mxCell>
        <mxCell id="xpnk6BXXVgzJLCjmbap--86" value="n" style="text;html=1;align=center;verticalAlign=middle;resizable=0;points=[];autosize=1;fontSize=16;" vertex="1" parent="ZhpGY93QoY0iyltNjLts-1">
          <mxGeometry x="1220" y="700" width="20" height="20" as="geometry" />
        </mxCell>
      </root>
    </mxGraphModel>
  </diagram>
</mxfile>
